<svg xmlns="http://www.w3.org/2000/svg" viewBox="0 0 260 260">
  <defs>
    <style>
      .cls-1 {
        fill: none;
      }
    </style>
  </defs>
  <title>cccp_gost</title>
  <g id="sign">
    <g>
      <path class="cls-1" d="M128.83,250.32l0,.35c10.08-.57,20.16-1,30.22-1.73a314.5,314.5,0,0,0,45.67-7.1,2.92,2.92,0,0,0,1.72-1.23,336.77,336.77,0,0,0,21.89-43.42,343.23,343.23,0,0,0,25.13-101.1,2.82,2.82,0,0,0-.56-1.92,339.27,339.27,0,0,0-44.64-42.6A345.42,345.42,0,0,0,130,4.74a2.76,2.76,0,0,0-2.41,0A345.24,345.24,0,0,0,4.87,93.94a2.61,2.61,0,0,0-.72,2.16,336.67,336.67,0,0,0,6.35,41.31A343.8,343.8,0,0,0,51,240.42a2.59,2.59,0,0,0,1.9,1.45c9.7,1.73,19.37,3.7,29.11,5.18A310.55,310.55,0,0,0,128.83,250.32Z"/>
      <path d="M128.83,250.32A310.55,310.55,0,0,1,82,247.05c-9.74-1.48-19.41-3.45-29.11-5.18a2.59,2.59,0,0,1-1.9-1.45,343.8,343.8,0,0,1-40.51-103A336.67,336.67,0,0,1,4.15,96.1a2.61,2.61,0,0,1,.72-2.16A345.24,345.24,0,0,1,127.62,4.76a2.76,2.76,0,0,1,2.41,0,345.42,345.42,0,0,1,78.25,46.83,339.27,339.27,0,0,1,44.64,42.6,2.82,2.82,0,0,1,.56,1.92,343.23,343.23,0,0,1-25.13,101.1,336.77,336.77,0,0,1-21.89,43.42,2.92,2.92,0,0,1-1.72,1.23,314.5,314.5,0,0,1-45.67,7.1c-10.06.75-20.14,1.16-30.22,1.73Zm0-10.22a272.5,272.5,0,0,0,41.05-2.75c9.4-1.36,18.72-3.26,28.07-4.9a2.39,2.39,0,0,0,1.82-1.37c.92-1.69,1.94-3.33,2.9-5a313,313,0,0,0,34-89,315.21,315.21,0,0,0,5.69-36.66,3.62,3.62,0,0,0-.91-3.13A313.09,313.09,0,0,0,129.81,16.37a2.76,2.76,0,0,0-2,0c-3.74,1.62-7.47,3.26-11.15,5A313.66,313.66,0,0,0,16.37,97.07a4,4,0,0,0-1.09,3.36A321.52,321.52,0,0,0,21,137.22a313.72,313.72,0,0,0,36.8,93.68,3,3,0,0,0,2.12,1.59A315.22,315.22,0,0,0,128.79,240.1Z"/>
      <path d="M233.43,101.62l-14.07,6q-44.64,19-89.25,38a3,3,0,0,1-2.63,0Q76.26,123.74,25,101.93a8.26,8.26,0,0,1-1.32-.68A498.85,498.85,0,0,0,233.43,101.62Z"/>
      <path d="M61.32,228.44q5.67-6.91,11.33-13.83l55.07-67.11c1.1-1.34,1.1-1.35,2.19,0l65.68,80a2.07,2.07,0,0,1,.5,1.05c-.38-.24-.78-.47-1.16-.72q-32.38-21-64.76-42a2.08,2.08,0,0,0-2.71,0Q95,206.92,62.5,228l-1,.62Z"/>
      <path d="M191.09,90.84c-3.2,0-6.14-1.13-9.08-2.22s-3-1.12-4.17,1.95c-.82,2.27-1.67,4.53-2.47,6.81-.24.71-.53.89-1.27.6-2.12-.83-4.27-1.62-6.44-2.33-.93-.3-1.11-.66-.76-1.61,3.11-8.39,6.17-16.8,9.24-25.21,1-2.82,2.09-5.62,3.07-8.46.3-.88.58-1.2,1.6-.82,4.68,1.78,9.41,3.44,14.11,5.18a16.43,16.43,0,0,1,6.41,4.08c3.67,3.89,4.21,9.39,1.46,14.88A12.3,12.3,0,0,1,191.09,90.84Zm-3-6.68c4.17,0,6.71-2.26,7.58-5.87s-.36-6.41-3.35-7.82a55.62,55.62,0,0,0-5.65-2.14,1.1,1.1,0,0,0-.93.5q-2.28,6-4.43,12.1c-.09.26.06.87.24.94C184,82.77,186.51,83.61,188.09,84.16Z"/>
      <path d="M159,82.23c-.5,2.89-.94,5.53-1.45,8.16-.06.32-.51.82-.78.82-5.06,0-10.14.17-14.87-2.17a19.17,19.17,0,0,1,6.18-36.21c3.53-.45,6.86.33,10.2,1.2,1.52.4,3,.87,4.49,1.39.34.12.82.66.78.94-.43,2.77-.95,5.54-1.5,8.58-3-3.46-6.59-5.21-11-4.76A11.66,11.66,0,0,0,144,63.45a12,12,0,0,0-1.94,15,11.58,11.58,0,0,0,7.66,5.46A12.35,12.35,0,0,0,159,82.23Z"/>
      <path d="M123.29,79.35c.24,2.9.47,5.62.65,8.35a.91.91,0,0,1-.48.74c-5.44,1.34-10.87,2.83-16.54,1.1A19.33,19.33,0,0,1,93.39,69.41,19,19,0,0,1,110,52.2a81.69,81.69,0,0,1,10.61,0,1.35,1.35,0,0,1,.94.93c.24,2.72.38,5.45.58,8.47A12.39,12.39,0,0,0,112,59.26a11.7,11.7,0,0,0-8.18,6,12,12,0,0,0,2.7,14.92C111.23,84.29,117.1,84.05,123.29,79.35Z"/>
      <path d="M82.12,69c-7.51-2.15-13.43.23-16.07,6.32A12,12,0,0,0,70.9,90.43c4.56,2.75,12.22,2.82,17-4.62.92,2.68,1.83,5.3,2.69,7.92a1,1,0,0,1-.31.87c-5.15,2.82-10.24,5.75-16.5,5.23a19.32,19.32,0,0,1-17.52-16.6A19,19,0,0,1,68.54,62.86a96.62,96.62,0,0,1,9.75-2.48,1.21,1.21,0,0,1,1,.57C80.27,63.55,81.15,66.18,82.12,69Z"/>
    </g>
  </g>
</svg>
